<svg width="1000" height="800" xmlns="http://www.w3.org/2000/svg" xmlns:xlink="http://www.w3.org/1999/xlink" version="1.1" baseProfile="full" viewBox="0 0 1000 800">
<rect width="1000" height="800" x="0" y="0" id="0" fill="none"></rect>
<polyline points="621.6 558.8 630.7 570.7 645.7 570.7" fill="none" stroke="#5470c6"></polyline>
<polyline points="356.9 260.3 315.8 297.8 300.8 297.8" fill="none" stroke="#91cc75"></polyline>
<polyline points="458.1 204.4 309.1 283.7 309.1 283.7" fill="none" stroke="#fac858"></polyline>
<polyline points="479.7 201 319 269.6 319 269.6" fill="none" stroke="#ee6666"></polyline>
<polyline points="487 200.4 330.7 255.5 330.7 255.5" fill="none" stroke="#73c0de"></polyline>
<polyline points="489.6 200.3 344.8 241.4 344.8 241.4" fill="none" stroke="#3ba272"></polyline>
<polyline points="492.7 200.1 361.8 227.3 361.8 227.3" fill="none" stroke="#fc8452"></polyline>
<polyline points="494.6 200.1 383.4 213.2 383.4 213.2" fill="none" stroke="#9a60b4"></polyline>
<polyline points="496.2 200 428.2 199.1 413.2 199.1" fill="none" stroke="#ea7ccc"></polyline>
<polyline points="498.5 200 498.4 185 483.4 185" fill="none" stroke="#5470c6"></polyline>
<path d="M500 200A200 200 0 1 1 306.9 347.8L500 400Z" fill="#5470c6"></path>
<path d="M306.9 347.8A200 200 0 0 1 443.2 208.2L500 400Z" fill="#91cc75"></path>
<path d="M443.2 208.2A200 200 0 0 1 473.2 201.8L500 400Z" fill="#fac858"></path>
<path d="M473.2 201.8A200 200 0 0 1 486.2 200.5L500 400Z" fill="#ee6666"></path>
<path d="M486.2 200.5A200 200 0 0 1 487.7 200.4L500 400Z" fill="#73c0de"></path>
<path d="M487.7 200.4A200 200 0 0 1 491.6 200.2L500 400Z" fill="#3ba272"></path>
<path d="M491.6 200.2A200 200 0 0 1 493.9 200.1L500 400Z" fill="#fc8452"></path>
<path d="M493.9 200.1A200 200 0 0 1 495.4 200.1L500 400Z" fill="#9a60b4"></path>
<path d="M495.4 200.1A200 200 0 0 1 496.9 200L500 400Z" fill="#ea7ccc"></path>
<path d="M496.9 200A200 200 0 0 1 500 200L500 400Z" fill="#5470c6"></path>
<text dominant-baseline="central" text-anchor="start" style="font-size:12px;font-family:sans-serif;" xml:space="preserve" transform="translate(650.7041 570.7086)" fill="#333" stroke="rgb(255,255,255)" stroke-width="2" paint-order="stroke" stroke-miterlimit="2">Process created</text>
<text dominant-baseline="central" text-anchor="end" style="font-size:12px;font-family:sans-serif;" xml:space="preserve" transform="translate(295.8154 297.8063)" fill="#333" stroke="rgb(255,255,255)" stroke-width="2" paint-order="stroke" stroke-miterlimit="2">Registry value modified</text>
<text dominant-baseline="central" text-anchor="end" style="font-size:12px;font-family:sans-serif;" xml:space="preserve" transform="translate(304.1329 283.7063)" fill="#333" stroke="rgb(255,255,255)" stroke-width="2" paint-order="stroke" stroke-miterlimit="2">Firewall allowed a connection</text>
<text dominant-baseline="central" text-anchor="end" style="font-size:12px;font-family:sans-serif;" xml:space="preserve" transform="translate(314.0095 269.6063)" fill="#333" stroke="rgb(255,255,255)" stroke-width="2" paint-order="stroke" stroke-miterlimit="2">Logon success</text>
<text dominant-baseline="central" text-anchor="end" style="font-size:12px;font-family:sans-serif;" xml:space="preserve" transform="translate(325.7351 255.5063)" fill="#333" stroke="rgb(255,255,255)" stroke-width="2" paint-order="stroke" stroke-miterlimit="2">Kerberos authentication ticket (TGT) requested</text>
<text dominant-baseline="central" text-anchor="end" style="font-size:12px;font-family:sans-serif;" xml:space="preserve" transform="translate(339.7567 241.4063)" fill="#333" stroke="rgb(255,255,255)" stroke-width="2" paint-order="stroke" stroke-miterlimit="2">Logon failure</text>
<text dominant-baseline="central" text-anchor="end" style="font-size:12px;font-family:sans-serif;" xml:space="preserve" transform="translate(356.8256 227.3063)" fill="#333" stroke="rgb(255,255,255)" stroke-width="2" paint-order="stroke" stroke-miterlimit="2">Member added to security-enabled global group</text>
<text dominant-baseline="central" text-anchor="end" style="font-size:12px;font-family:sans-serif;" xml:space="preserve" transform="translate(378.3958 213.2063)" fill="#333" stroke="rgb(255,255,255)" stroke-width="2" paint-order="stroke" stroke-miterlimit="2">Member added to security-enabled local group</text>
<text dominant-baseline="central" text-anchor="end" style="font-size:12px;font-family:sans-serif;" xml:space="preserve" transform="translate(408.1693 199.1063)" fill="#333" stroke="rgb(255,255,255)" stroke-width="2" paint-order="stroke" stroke-miterlimit="2">Credential Manager credentials were read</text>
<text dominant-baseline="central" text-anchor="end" style="font-size:12px;font-family:sans-serif;" xml:space="preserve" transform="translate(478.3504 185.0063)" fill="#333" stroke="rgb(255,255,255)" stroke-width="2" paint-order="stroke" stroke-miterlimit="2">Explicit logon</text>
<path d="M-5 -5l958.1 0l0 72l-958.1 0Z" transform="translate(25.94 733)" fill="rgb(0,0,0)" fill-opacity="0" stroke="#ccc" stroke-width="0"></path>
<path d="M3.5 0L21.5 0A3.5 3.5 0 0 1 25 3.5L25 10.5A3.5 3.5 0 0 1 21.5 14L3.5 14A3.5 3.5 0 0 1 0 10.5L0 3.5A3.5 3.5 0 0 1 3.5 0" transform="translate(25.94 733)" fill="#5470c6"></path>
<text dominant-baseline="central" text-anchor="start" style="font-size:12px;font-family:sans-serif;" xml:space="preserve" x="30" y="7" transform="translate(25.94 733)" fill="#333">Process created</text>
<path d="M3.5 0L21.5 0A3.5 3.5 0 0 1 25 3.5L25 10.5A3.5 3.5 0 0 1 21.5 14L3.5 14A3.5 3.5 0 0 1 0 10.5L0 3.5A3.5 3.5 0 0 1 3.5 0" transform="translate(152.94 733)" fill="#91cc75"></path>
<text dominant-baseline="central" text-anchor="start" style="font-size:12px;font-family:sans-serif;" xml:space="preserve" x="30" y="7" transform="translate(152.94 733)" fill="#333">Registry value modified</text>
<path d="M3.5 0L21.5 0A3.5 3.5 0 0 1 25 3.5L25 10.5A3.5 3.5 0 0 1 21.5 14L3.5 14A3.5 3.5 0 0 1 0 10.5L0 3.5A3.5 3.5 0 0 1 3.5 0" transform="translate(317.98 733)" fill="#fac858"></path>
<text dominant-baseline="central" text-anchor="start" style="font-size:12px;font-family:sans-serif;" xml:space="preserve" x="30" y="7" transform="translate(317.98 733)" fill="#333">Firewall allowed a connection</text>
<path d="M3.5 0L21.5 0A3.5 3.5 0 0 1 25 3.5L25 10.5A3.5 3.5 0 0 1 21.5 14L3.5 14A3.5 3.5 0 0 1 0 10.5L0 3.5A3.5 3.5 0 0 1 3.5 0" transform="translate(515.18 733)" fill="#ee6666"></path>
<text dominant-baseline="central" text-anchor="start" style="font-size:12px;font-family:sans-serif;" xml:space="preserve" x="30" y="7" transform="translate(515.18 733)" fill="#333">Logon success</text>
<path d="M3.5 0L21.5 0A3.5 3.5 0 0 1 25 3.5L25 10.5A3.5 3.5 0 0 1 21.5 14L3.5 14A3.5 3.5 0 0 1 0 10.5L0 3.5A3.5 3.5 0 0 1 3.5 0" transform="translate(635.58 733)" fill="#73c0de"></path>
<text dominant-baseline="central" text-anchor="start" style="font-size:12px;font-family:sans-serif;" xml:space="preserve" x="30" y="7" transform="translate(635.58 733)" fill="#333">Kerberos authentication ticket (TGT) requested</text>
<path d="M3.5 0L21.5 0A3.5 3.5 0 0 1 25 3.5L25 10.5A3.5 3.5 0 0 1 21.5 14L3.5 14A3.5 3.5 0 0 1 0 10.5L0 3.5A3.5 3.5 0 0 1 3.5 0" transform="translate(25.94 757)" fill="#3ba272"></path>
<text dominant-baseline="central" text-anchor="start" style="font-size:12px;font-family:sans-serif;" xml:space="preserve" x="30" y="7" transform="translate(25.94 757)" fill="#333">Logon failure</text>
<path d="M3.5 0L21.5 0A3.5 3.5 0 0 1 25 3.5L25 10.5A3.5 3.5 0 0 1 21.5 14L3.5 14A3.5 3.5 0 0 1 0 10.5L0 3.5A3.5 3.5 0 0 1 3.5 0" transform="translate(135.66 757)" fill="#fc8452"></path>
<text dominant-baseline="central" text-anchor="start" style="font-size:12px;font-family:sans-serif;" xml:space="preserve" x="30" y="7" transform="translate(135.66 757)" fill="#333">Member added to security-enabled global group</text>
<path d="M3.5 0L21.5 0A3.5 3.5 0 0 1 25 3.5L25 10.5A3.5 3.5 0 0 1 21.5 14L3.5 14A3.5 3.5 0 0 1 0 10.5L0 3.5A3.5 3.5 0 0 1 3.5 0" transform="translate(431.5 757)" fill="#9a60b4"></path>
<text dominant-baseline="central" text-anchor="start" style="font-size:12px;font-family:sans-serif;" xml:space="preserve" x="30" y="7" transform="translate(431.5 757)" fill="#333">Member added to security-enabled local group</text>
<path d="M3.5 0L21.5 0A3.5 3.5 0 0 1 25 3.5L25 10.5A3.5 3.5 0 0 1 21.5 14L3.5 14A3.5 3.5 0 0 1 0 10.5L0 3.5A3.5 3.5 0 0 1 3.5 0" transform="translate(719.9 757)" fill="#ea7ccc"></path>
<text dominant-baseline="central" text-anchor="start" style="font-size:12px;font-family:sans-serif;" xml:space="preserve" x="30" y="7" transform="translate(719.9 757)" fill="#333">Credential Manager credentials were read</text>
<path d="M3.5 0L21.5 0A3.5 3.5 0 0 1 25 3.5L25 10.5A3.5 3.5 0 0 1 21.5 14L3.5 14A3.5 3.5 0 0 1 0 10.5L0 3.5A3.5 3.5 0 0 1 3.5 0" transform="translate(25.94 781)" fill="#5470c6"></path>
<text dominant-baseline="central" text-anchor="start" style="font-size:12px;font-family:sans-serif;" xml:space="preserve" x="30" y="7" transform="translate(25.94 781)" fill="#333">Explicit logon</text>
</svg>