<svg width="1000" height="800" xmlns="http://www.w3.org/2000/svg" xmlns:xlink="http://www.w3.org/1999/xlink" version="1.1" baseProfile="full" viewBox="0 0 1000 800">
<rect width="1000" height="800" x="0" y="0" id="0" fill="none"></rect>
<polyline points="500.8 200 500.8 185 515.8 185" fill="none" stroke="#5470c6"></polyline>
<polyline points="508.1 200.2 571.8 199.1 586.8 199.1" fill="none" stroke="#91cc75"></polyline>
<polyline points="609.9 232.9 613.3 220.4 628.3 220.4" fill="none" stroke="#fac858"></polyline>
<polyline points="415.1 581.1 408.8 594.7 393.8 594.7" fill="none" stroke="#ee6666"></polyline>
<polyline points="459 204.2 330 256.1 330 256.1" fill="none" stroke="#73c0de"></polyline>
<polyline points="461.6 203.7 343.8 242 343.8 242" fill="none" stroke="#3ba272"></polyline>
<polyline points="463.5 203.4 360.6 227.9 360.6 227.9" fill="none" stroke="#fc8452"></polyline>
<polyline points="465 203.1 396.8 213.8 381.8 213.8" fill="none" stroke="#9a60b4"></polyline>
<polyline points="467.7 202.6 425.7 199.7 410.7 199.7" fill="none" stroke="#ea7ccc"></polyline>
<polyline points="484.7 200.6 483.6 185.6 468.6 185.6" fill="none" stroke="#5470c6"></polyline>
<path d="M500 200A200 200 0 0 1 501.5 200L500 400Z" fill="#5470c6"></path>
<path d="M501.5 200A200 200 0 0 1 514.6 200.5L500 400Z" fill="#91cc75"></path>
<path d="M514.6 200.5A200 200 0 0 1 677.4 307.6L500 400Z" fill="#fac858"></path>
<path d="M677.4 307.6A200 200 0 1 1 457.5 204.6L500 400Z" fill="#ee6666"></path>
<path d="M457.5 204.6A200 200 0 0 1 460.5 203.9L500 400Z" fill="#73c0de"></path>
<path d="M460.5 203.9A200 200 0 0 1 462.8 203.5L500 400Z" fill="#3ba272"></path>
<path d="M462.8 203.5A200 200 0 0 1 464.3 203.2L500 400Z" fill="#fc8452"></path>
<path d="M464.3 203.2A200 200 0 0 1 465.8 203L500 400Z" fill="#9a60b4"></path>
<path d="M465.8 203A200 200 0 0 1 469.6 202.3L500 400Z" fill="#ea7ccc"></path>
<path d="M469.6 202.3A200 200 0 0 1 500 200L500 400Z" fill="#5470c6"></path>
<text dominant-baseline="central" text-anchor="start" style="font-size:12px;font-family:sans-serif;" xml:space="preserve" transform="translate(520.8248 185.0016)" fill="#333" stroke="rgb(255,255,255)" stroke-width="2" paint-order="stroke" stroke-miterlimit="2">Credential Manager credentials were read</text>
<text dominant-baseline="central" text-anchor="start" style="font-size:12px;font-family:sans-serif;" xml:space="preserve" transform="translate(591.7715 199.1016)" fill="#333" stroke="rgb(255,255,255)" stroke-width="2" paint-order="stroke" stroke-miterlimit="2">Logon success</text>
<text dominant-baseline="central" text-anchor="start" style="font-size:12px;font-family:sans-serif;" xml:space="preserve" transform="translate(633.2532 220.3771)" fill="#333" stroke="rgb(255,255,255)" stroke-width="2" paint-order="stroke" stroke-miterlimit="2">Registry value modified</text>
<text dominant-baseline="central" text-anchor="end" style="font-size:12px;font-family:sans-serif;" xml:space="preserve" transform="translate(388.7548 594.6775)" fill="#333" stroke="rgb(255,255,255)" stroke-width="2" paint-order="stroke" stroke-miterlimit="2">Process created</text>
<text dominant-baseline="central" text-anchor="end" style="font-size:12px;font-family:sans-serif;" xml:space="preserve" transform="translate(324.9662 256.1273)" fill="#333" stroke="rgb(255,255,255)" stroke-width="2" paint-order="stroke" stroke-miterlimit="2">Explicit logon</text>
<text dominant-baseline="central" text-anchor="end" style="font-size:12px;font-family:sans-serif;" xml:space="preserve" transform="translate(338.8073 242.0273)" fill="#333" stroke="rgb(255,255,255)" stroke-width="2" paint-order="stroke" stroke-miterlimit="2">Member added to security-enabled global group</text>
<text dominant-baseline="central" text-anchor="end" style="font-size:12px;font-family:sans-serif;" xml:space="preserve" transform="translate(355.6253 227.9273)" fill="#333" stroke="rgb(255,255,255)" stroke-width="2" paint-order="stroke" stroke-miterlimit="2">User account created</text>
<text dominant-baseline="central" text-anchor="end" style="font-size:12px;font-family:sans-serif;" xml:space="preserve" transform="translate(376.7995 213.8273)" fill="#333" stroke="rgb(255,255,255)" stroke-width="2" paint-order="stroke" stroke-miterlimit="2">A trusted logon process has been registered with the ...</text>
<text dominant-baseline="central" text-anchor="end" style="font-size:12px;font-family:sans-serif;" xml:space="preserve" transform="translate(405.748 199.7273)" fill="#333" stroke="rgb(255,255,255)" stroke-width="2" paint-order="stroke" stroke-miterlimit="2">Logon failure</text>
<text dominant-baseline="central" text-anchor="end" style="font-size:12px;font-family:sans-serif;" xml:space="preserve" transform="translate(463.5887 185.6273)" fill="#333" stroke="rgb(255,255,255)" stroke-width="2" paint-order="stroke" stroke-miterlimit="2">Firewall allowed a connection</text>
<path d="M-5 -5l901.6 0l0 72l-901.6 0Z" transform="translate(54.22 733)" fill="rgb(0,0,0)" fill-opacity="0" stroke="#ccc" stroke-width="0"></path>
<path d="M3.5 0L21.5 0A3.5 3.5 0 0 1 25 3.5L25 10.5A3.5 3.5 0 0 1 21.5 14L3.5 14A3.5 3.5 0 0 1 0 10.5L0 3.5A3.5 3.5 0 0 1 3.5 0" transform="translate(54.22 733)" fill="#5470c6"></path>
<text dominant-baseline="central" text-anchor="start" style="font-size:12px;font-family:sans-serif;" xml:space="preserve" x="30" y="7" transform="translate(54.22 733)" fill="#333">Credential Manager credentials were read</text>
<path d="M3.5 0L21.5 0A3.5 3.5 0 0 1 25 3.5L25 10.5A3.5 3.5 0 0 1 21.5 14L3.5 14A3.5 3.5 0 0 1 0 10.5L0 3.5A3.5 3.5 0 0 1 3.5 0" transform="translate(318.38 733)" fill="#91cc75"></path>
<text dominant-baseline="central" text-anchor="start" style="font-size:12px;font-family:sans-serif;" xml:space="preserve" x="30" y="7" transform="translate(318.38 733)" fill="#333">Logon success</text>
<path d="M3.5 0L21.5 0A3.5 3.5 0 0 1 25 3.5L25 10.5A3.5 3.5 0 0 1 21.5 14L3.5 14A3.5 3.5 0 0 1 0 10.5L0 3.5A3.5 3.5 0 0 1 3.5 0" transform="translate(438.78 733)" fill="#fac858"></path>
<text dominant-baseline="central" text-anchor="start" style="font-size:12px;font-family:sans-serif;" xml:space="preserve" x="30" y="7" transform="translate(438.78 733)" fill="#333">Registry value modified</text>
<path d="M3.5 0L21.5 0A3.5 3.5 0 0 1 25 3.5L25 10.5A3.5 3.5 0 0 1 21.5 14L3.5 14A3.5 3.5 0 0 1 0 10.5L0 3.5A3.5 3.5 0 0 1 3.5 0" transform="translate(603.82 733)" fill="#ee6666"></path>
<text dominant-baseline="central" text-anchor="start" style="font-size:12px;font-family:sans-serif;" xml:space="preserve" x="30" y="7" transform="translate(603.82 733)" fill="#333">Process created</text>
<path d="M3.5 0L21.5 0A3.5 3.5 0 0 1 25 3.5L25 10.5A3.5 3.5 0 0 1 21.5 14L3.5 14A3.5 3.5 0 0 1 0 10.5L0 3.5A3.5 3.5 0 0 1 3.5 0" transform="translate(730.82 733)" fill="#73c0de"></path>
<text dominant-baseline="central" text-anchor="start" style="font-size:12px;font-family:sans-serif;" xml:space="preserve" x="30" y="7" transform="translate(730.82 733)" fill="#333">Explicit logon</text>
<path d="M3.5 0L21.5 0A3.5 3.5 0 0 1 25 3.5L25 10.5A3.5 3.5 0 0 1 21.5 14L3.5 14A3.5 3.5 0 0 1 0 10.5L0 3.5A3.5 3.5 0 0 1 3.5 0" transform="translate(54.22 757)" fill="#3ba272"></path>
<text dominant-baseline="central" text-anchor="start" style="font-size:12px;font-family:sans-serif;" xml:space="preserve" x="30" y="7" transform="translate(54.22 757)" fill="#333">Member added to security-enabled global group</text>
<path d="M3.5 0L21.5 0A3.5 3.5 0 0 1 25 3.5L25 10.5A3.5 3.5 0 0 1 21.5 14L3.5 14A3.5 3.5 0 0 1 0 10.5L0 3.5A3.5 3.5 0 0 1 3.5 0" transform="translate(350.06 757)" fill="#fc8452"></path>
<text dominant-baseline="central" text-anchor="start" style="font-size:12px;font-family:sans-serif;" xml:space="preserve" x="30" y="7" transform="translate(350.06 757)" fill="#333">User account created</text>
<path d="M3.5 0L21.5 0A3.5 3.5 0 0 1 25 3.5L25 10.5A3.5 3.5 0 0 1 21.5 14L3.5 14A3.5 3.5 0 0 1 0 10.5L0 3.5A3.5 3.5 0 0 1 3.5 0" transform="translate(504.54 757)" fill="#9a60b4"></path>
<text dominant-baseline="central" text-anchor="start" style="font-size:12px;font-family:sans-serif;" xml:space="preserve" x="30" y="7" transform="translate(504.54 757)" fill="#333">A trusted logon process has been registered with the Local Security Authority</text>
<path d="M3.5 0L21.5 0A3.5 3.5 0 0 1 25 3.5L25 10.5A3.5 3.5 0 0 1 21.5 14L3.5 14A3.5 3.5 0 0 1 0 10.5L0 3.5A3.5 3.5 0 0 1 3.5 0" transform="translate(54.22 781)" fill="#ea7ccc"></path>
<text dominant-baseline="central" text-anchor="start" style="font-size:12px;font-family:sans-serif;" xml:space="preserve" x="30" y="7" transform="translate(54.22 781)" fill="#333">Logon failure</text>
<path d="M3.5 0L21.5 0A3.5 3.5 0 0 1 25 3.5L25 10.5A3.5 3.5 0 0 1 21.5 14L3.5 14A3.5 3.5 0 0 1 0 10.5L0 3.5A3.5 3.5 0 0 1 3.5 0" transform="translate(163.94 781)" fill="#5470c6"></path>
<text dominant-baseline="central" text-anchor="start" style="font-size:12px;font-family:sans-serif;" xml:space="preserve" x="30" y="7" transform="translate(163.94 781)" fill="#333">Firewall allowed a connection</text>
</svg>