<svg width="1000" height="800" xmlns="http://www.w3.org/2000/svg" xmlns:xlink="http://www.w3.org/1999/xlink" version="1.1" baseProfile="full" viewBox="0 0 1000 800">
<rect width="1000" height="800" x="0" y="0" id="0" fill="none"></rect>
<polyline points="627.9 185.2 635.6 172.3 650.6 172.3" fill="none" stroke="#5470c6"></polyline>
<polyline points="750 403.4 765 403.6 780 403.6" fill="none" stroke="#91cc75"></polyline>
<polyline points="644.8 603.8 653.5 616.1 668.5 616.1" fill="none" stroke="#fac858"></polyline>
<polyline points="446.7 644.3 443.5 658.9 428.5 658.9" fill="none" stroke="#ee6666"></polyline>
<polyline points="290.5 536.4 277.9 544.6 262.9 544.6" fill="none" stroke="#73c0de"></polyline>
<polyline points="252.7 363.2 237.9 361 222.9 361" fill="none" stroke="#3ba272"></polyline>
<polyline points="324.4 222 313.9 211.4 298.9 211.4" fill="none" stroke="#fc8452"></polyline>
<polyline points="440.2 157.3 436.6 142.7 421.6 142.7" fill="none" stroke="#9a60b4"></polyline>
<path d="M500 158.1A8 8 0 0 1 508.3 150.1A250 250 0 0 1 715.7 273.7A8 8 0 0 1 712.6 284.7L550.5 372.6A8 8 0 0 1 540.3 370.3A50 50 0 0 0 506.9 350.5A8 8 0 0 1 500 342.6Z" fill="#5470c6"></path>
<path d="M712.6 284.7A8 8 0 0 1 723.6 288.2A250 250 0 0 1 720.5 517.8A8 8 0 0 1 709.5 520.9L549.7 428.7A8 8 0 0 1 546.3 418.8A50 50 0 0 0 546.8 382.5A8 8 0 0 1 550.5 372.6Z" fill="#91cc75"></path>
<path d="M709.5 520.9A8 8 0 0 1 712.3 532.1A250 250 0 0 1 554.8 643.9A8 8 0 0 1 545.2 637.6L510.7 456.4A8 8 0 0 1 516 447.4A50 50 0 0 0 539.4 430.7A8 8 0 0 1 549.7 428.7Z" fill="#fac858"></path>
<path d="M545.2 637.6A8 8 0 0 1 538.6 647A250 250 0 0 1 362.1 608.5A8 8 0 0 1 359.9 597.2L466.7 446.8A8 8 0 0 1 476.9 444.4A50 50 0 0 0 502.5 449.9A8 8 0 0 1 510.7 456.4Z" fill="#ee6666"></path>
<path d="M359.9 597.2A8 8 0 0 1 348.6 598.9A250 250 0 0 1 256.8 458.1A8 8 0 0 1 263 448.4L443.7 411.5A8 8 0 0 1 452.9 416.7A50 50 0 0 0 465.7 436.4A8 8 0 0 1 466.7 446.8Z" fill="#73c0de"></path>
<path d="M263 448.4A8 8 0 0 1 253.5 441.9A250 250 0 0 1 276.4 288.2A8 8 0 0 1 287.4 284.7L449.5 372.6A8 8 0 0 1 453.2 382.5A50 50 0 0 0 450.1 403.1A8 8 0 0 1 443.7 411.5Z" fill="#3ba272"></path>
<path d="M287.4 284.7A8 8 0 0 1 284.3 273.7A250 250 0 0 1 376.6 182.6A8 8 0 0 1 387.6 185.8L473.3 349.1A8 8 0 0 1 470.9 359.4A50 50 0 0 0 459.7 370.3A8 8 0 0 1 449.5 372.6Z" fill="#fc8452"></path>
<path d="M387.6 185.8A8 8 0 0 1 391.2 174.9A250 250 0 0 1 491.7 150.1A8 8 0 0 1 500 158.1L500 342.6A8 8 0 0 1 493.1 350.5A50 50 0 0 0 483.1 352.9A8 8 0 0 1 473.3 349.1Z" fill="#9a60b4"></path>
<text dominant-baseline="central" text-anchor="start" style="font-size:12px;font-family:sans-serif;" xml:space="preserve" transform="translate(655.5691 172.3028)" fill="#333" stroke="rgb(255,255,255)" stroke-width="2" paint-order="stroke" stroke-miterlimit="2">rose 1</text>
<text dominant-baseline="central" text-anchor="start" style="font-size:12px;font-family:sans-serif;" xml:space="preserve" transform="translate(784.9761 403.5577)" fill="#333" stroke="rgb(255,255,255)" stroke-width="2" paint-order="stroke" stroke-miterlimit="2">rose 2</text>
<text dominant-baseline="central" text-anchor="start" style="font-size:12px;font-family:sans-serif;" xml:space="preserve" transform="translate(673.4515 616.0501)" fill="#333" stroke="rgb(255,255,255)" stroke-width="2" paint-order="stroke" stroke-miterlimit="2">rose 3</text>
<text dominant-baseline="central" text-anchor="end" style="font-size:12px;font-family:sans-serif;" xml:space="preserve" transform="translate(423.5122 658.9095)" fill="#333" stroke="rgb(255,255,255)" stroke-width="2" paint-order="stroke" stroke-miterlimit="2">rose 4</text>
<text dominant-baseline="central" text-anchor="end" style="font-size:12px;font-family:sans-serif;" xml:space="preserve" transform="translate(257.9463 544.6276)" fill="#333" stroke="rgb(255,255,255)" stroke-width="2" paint-order="stroke" stroke-miterlimit="2">rose 5</text>
<text dominant-baseline="central" text-anchor="end" style="font-size:12px;font-family:sans-serif;" xml:space="preserve" transform="translate(217.8846 361.0065)" fill="#333" stroke="rgb(255,255,255)" stroke-width="2" paint-order="stroke" stroke-miterlimit="2">rose 6</text>
<text dominant-baseline="central" text-anchor="end" style="font-size:12px;font-family:sans-serif;" xml:space="preserve" transform="translate(293.8788 211.3631)" fill="#333" stroke="rgb(255,255,255)" stroke-width="2" paint-order="stroke" stroke-miterlimit="2">rose 7</text>
<text dominant-baseline="central" text-anchor="end" style="font-size:12px;font-family:sans-serif;" xml:space="preserve" transform="translate(416.5813 142.7004)" fill="#333" stroke="rgb(255,255,255)" stroke-width="2" paint-order="stroke" stroke-miterlimit="2">rose 8</text>
<path d="M-5 -5l587.8 0l0 24l-587.8 0Z" transform="translate(211.08 781)" fill="rgb(0,0,0)" fill-opacity="0" stroke="#ccc" stroke-width="0"></path>
<path d="M3.5 0L21.5 0A3.5 3.5 0 0 1 25 3.5L25 10.5A3.5 3.5 0 0 1 21.5 14L3.5 14A3.5 3.5 0 0 1 0 10.5L0 3.5A3.5 3.5 0 0 1 3.5 0" transform="translate(211.08 781)" fill="#5470c6"></path>
<text dominant-baseline="central" text-anchor="start" style="font-size:12px;font-family:sans-serif;" xml:space="preserve" x="30" y="7" transform="translate(211.08 781)" fill="#333">rose 1</text>
<path d="M3.5 0L21.5 0A3.5 3.5 0 0 1 25 3.5L25 10.5A3.5 3.5 0 0 1 21.5 14L3.5 14A3.5 3.5 0 0 1 0 10.5L0 3.5A3.5 3.5 0 0 1 3.5 0" transform="translate(284.56 781)" fill="#91cc75"></path>
<text dominant-baseline="central" text-anchor="start" style="font-size:12px;font-family:sans-serif;" xml:space="preserve" x="30" y="7" transform="translate(284.56 781)" fill="#333">rose 2</text>
<path d="M3.5 0L21.5 0A3.5 3.5 0 0 1 25 3.5L25 10.5A3.5 3.5 0 0 1 21.5 14L3.5 14A3.5 3.5 0 0 1 0 10.5L0 3.5A3.5 3.5 0 0 1 3.5 0" transform="translate(358.04 781)" fill="#fac858"></path>
<text dominant-baseline="central" text-anchor="start" style="font-size:12px;font-family:sans-serif;" xml:space="preserve" x="30" y="7" transform="translate(358.04 781)" fill="#333">rose 3</text>
<path d="M3.5 0L21.5 0A3.5 3.5 0 0 1 25 3.5L25 10.5A3.5 3.5 0 0 1 21.5 14L3.5 14A3.5 3.5 0 0 1 0 10.5L0 3.5A3.5 3.5 0 0 1 3.5 0" transform="translate(431.52 781)" fill="#ee6666"></path>
<text dominant-baseline="central" text-anchor="start" style="font-size:12px;font-family:sans-serif;" xml:space="preserve" x="30" y="7" transform="translate(431.52 781)" fill="#333">rose 4</text>
<path d="M3.5 0L21.5 0A3.5 3.5 0 0 1 25 3.5L25 10.5A3.5 3.5 0 0 1 21.5 14L3.5 14A3.5 3.5 0 0 1 0 10.5L0 3.5A3.5 3.5 0 0 1 3.5 0" transform="translate(505 781)" fill="#73c0de"></path>
<text dominant-baseline="central" text-anchor="start" style="font-size:12px;font-family:sans-serif;" xml:space="preserve" x="30" y="7" transform="translate(505 781)" fill="#333">rose 5</text>
<path d="M3.5 0L21.5 0A3.5 3.5 0 0 1 25 3.5L25 10.5A3.5 3.5 0 0 1 21.5 14L3.5 14A3.5 3.5 0 0 1 0 10.5L0 3.5A3.5 3.5 0 0 1 3.5 0" transform="translate(578.48 781)" fill="#3ba272"></path>
<text dominant-baseline="central" text-anchor="start" style="font-size:12px;font-family:sans-serif;" xml:space="preserve" x="30" y="7" transform="translate(578.48 781)" fill="#333">rose 6</text>
<path d="M3.5 0L21.5 0A3.5 3.5 0 0 1 25 3.5L25 10.5A3.5 3.5 0 0 1 21.5 14L3.5 14A3.5 3.5 0 0 1 0 10.5L0 3.5A3.5 3.5 0 0 1 3.5 0" transform="translate(651.96 781)" fill="#fc8452"></path>
<text dominant-baseline="central" text-anchor="start" style="font-size:12px;font-family:sans-serif;" xml:space="preserve" x="30" y="7" transform="translate(651.96 781)" fill="#333">rose 7</text>
<path d="M3.5 0L21.5 0A3.5 3.5 0 0 1 25 3.5L25 10.5A3.5 3.5 0 0 1 21.5 14L3.5 14A3.5 3.5 0 0 1 0 10.5L0 3.5A3.5 3.5 0 0 1 3.5 0" transform="translate(725.44 781)" fill="#9a60b4"></path>
<text dominant-baseline="central" text-anchor="start" style="font-size:12px;font-family:sans-serif;" xml:space="preserve" x="30" y="7" transform="translate(725.44 781)" fill="#333">rose 8</text>
</svg>