<svg width="1000" height="800" xmlns="http://www.w3.org/2000/svg" xmlns:xlink="http://www.w3.org/1999/xlink" version="1.1" baseProfile="full" viewBox="0 0 1000 800">
<rect width="1000" height="800" x="0" y="0" id="0" fill="none"></rect>
<polyline points="501.9 150 502 135 517 135" fill="none" stroke="#5470c6"></polyline>
<polyline points="648.9 600.8 657.9 612.9 672.9 612.9" fill="none" stroke="#91cc75"></polyline>
<polyline points="323.8 222.6 298.6 233.7 283.6 233.7" fill="none" stroke="#fac858"></polyline>
<polyline points="434.1 158.8 295.8 219.6 295.8 219.6" fill="none" stroke="#ee6666"></polyline>
<polyline points="443.4 156.5 310 205.5 310 205.5" fill="none" stroke="#73c0de"></polyline>
<polyline points="452.3 154.6 326.5 191.4 326.5 191.4" fill="none" stroke="#3ba272"></polyline>
<polyline points="455.6 154 346.3 177.3 346.3 177.3" fill="none" stroke="#fc8452"></polyline>
<polyline points="458.9 153.4 385.9 163.2 370.9 163.2" fill="none" stroke="#9a60b4"></polyline>
<polyline points="478.9 150.9 419.5 149.1 404.5 149.1" fill="none" stroke="#ea7ccc"></polyline>
<polyline points="499 150 499 135 484 135" fill="none" stroke="#5470c6"></polyline>
<path d="M500 151.9A1.9 1.9 0 1 1 503.8 151.9L500.8 349.6A0.4 0.4 0 0 1 500 349.6Z" fill="#5470c6"></path>
<path d="M503.7 158.2A8 8 0 0 1 512.1 150.3A250 250 0 1 1 257.5 339.1A8 8 0 0 1 267.5 333.3L444.8 384.2A8 8 0 0 1 450.5 393A50 50 0 1 0 507.7 350.6A8 8 0 0 1 500.9 342.6Z" fill="#91cc75"></path>
<path d="M267.5 333.3A8 8 0 0 1 262.1 323.2A250 250 0 0 1 424.8 161.6A8 8 0 0 1 434.9 167L484.5 344.7A8 8 0 0 1 480 354.2A50 50 0 0 0 454.3 379.7A8 8 0 0 1 444.8 384.2Z" fill="#fac858"></path>
<path d="M433.1 160.6A1.4 1.4 0 1 1 435.9 159.8L487 351.4A0.3 0.3 0 0 1 486.5 351.6Z" fill="#ee6666"></path>
<path d="M437.6 166.2A7.9 7.9 0 1 1 453 162.6L490 349.3A1.7 1.7 0 0 1 486.7 350.1Z" fill="#73c0de"></path>
<path d="M451.6 155.7A1 1 0 1 1 453.5 155.3L490.6 350.7A0.2 0.2 0 0 1 490.2 350.8Z" fill="#3ba272"></path>
<path d="M453.7 156.7A2.4 2.4 0 1 1 458.4 155.9L491.5 350.2A0.5 0.5 0 0 1 490.6 350.4Z" fill="#fc8452"></path>
<path d="M458.2 154.5A1 1 0 1 1 460 154.2L491.9 350.5A0.2 0.2 0 0 1 491.6 350.5Z" fill="#9a60b4"></path>
<path d="M461.2 161.3A8 8 0 0 1 468.1 152A250 250 0 0 1 489.8 150.2A8 8 0 0 1 498.1 158.1L499.6 346A4.2 4.2 0 0 1 491.3 346.7Z" fill="#ea7ccc"></path>
<path d="M498.1 151A1 1 0 1 1 500 151L500 349.8A0.2 0.2 0 0 1 499.6 349.8Z" fill="#5470c6"></path>
<text dominant-baseline="central" text-anchor="start" style="font-size:12px;font-family:sans-serif;" xml:space="preserve" transform="translate(522.0332 135.0078)" fill="#333" stroke="rgb(255,255,255)" stroke-width="2" paint-order="stroke" stroke-miterlimit="2">Explicit logon</text>
<text dominant-baseline="central" text-anchor="start" style="font-size:12px;font-family:sans-serif;" xml:space="preserve" transform="translate(677.8529 612.8555)" fill="#333" stroke="rgb(255,255,255)" stroke-width="2" paint-order="stroke" stroke-miterlimit="2">Process created</text>
<text dominant-baseline="central" text-anchor="end" style="font-size:12px;font-family:sans-serif;" xml:space="preserve" transform="translate(278.6416 233.702)" fill="#333" stroke="rgb(255,255,255)" stroke-width="2" paint-order="stroke" stroke-miterlimit="2">Registry value modified</text>
<text dominant-baseline="central" text-anchor="end" style="font-size:12px;font-family:sans-serif;" xml:space="preserve" transform="translate(290.8407 219.602)" fill="#333" stroke="rgb(255,255,255)" stroke-width="2" paint-order="stroke" stroke-miterlimit="2">Member added to security-enabled global group</text>
<text dominant-baseline="central" text-anchor="end" style="font-size:12px;font-family:sans-serif;" xml:space="preserve" transform="translate(304.9599 205.502)" fill="#333" stroke="rgb(255,255,255)" stroke-width="2" paint-order="stroke" stroke-miterlimit="2">Logon success</text>
<text dominant-baseline="central" text-anchor="end" style="font-size:12px;font-family:sans-serif;" xml:space="preserve" transform="translate(321.4957 191.402)" fill="#333" stroke="rgb(255,255,255)" stroke-width="2" paint-order="stroke" stroke-miterlimit="2">Member added to security-enabled local group</text>
<text dominant-baseline="central" text-anchor="end" style="font-size:12px;font-family:sans-serif;" xml:space="preserve" transform="translate(341.2801 177.302)" fill="#333" stroke="rgb(255,255,255)" stroke-width="2" paint-order="stroke" stroke-miterlimit="2">Logon failure</text>
<text dominant-baseline="central" text-anchor="end" style="font-size:12px;font-family:sans-serif;" xml:space="preserve" transform="translate(365.9212 163.202)" fill="#333" stroke="rgb(255,255,255)" stroke-width="2" paint-order="stroke" stroke-miterlimit="2">Kerberos authentication ticket (TGT) requested</text>
<text dominant-baseline="central" text-anchor="end" style="font-size:12px;font-family:sans-serif;" xml:space="preserve" transform="translate(399.5208 149.102)" fill="#333" stroke="rgb(255,255,255)" stroke-width="2" paint-order="stroke" stroke-miterlimit="2">Firewall allowed a connection</text>
<text dominant-baseline="central" text-anchor="end" style="font-size:12px;font-family:sans-serif;" xml:space="preserve" transform="translate(478.9834 135.002)" fill="#333" stroke="rgb(255,255,255)" stroke-width="2" paint-order="stroke" stroke-miterlimit="2">User account created</text>
<path d="M-5 -5l886.4 0l0 72l-886.4 0Z" transform="translate(61.82 733)" fill="rgb(0,0,0)" fill-opacity="0" stroke="#ccc" stroke-width="0"></path>
<path d="M3.5 0L21.5 0A3.5 3.5 0 0 1 25 3.5L25 10.5A3.5 3.5 0 0 1 21.5 14L3.5 14A3.5 3.5 0 0 1 0 10.5L0 3.5A3.5 3.5 0 0 1 3.5 0" transform="translate(61.82 733)" fill="#5470c6"></path>
<text dominant-baseline="central" text-anchor="start" style="font-size:12px;font-family:sans-serif;" xml:space="preserve" x="30" y="7" transform="translate(61.82 733)" fill="#333">Explicit logon</text>
<path d="M3.5 0L21.5 0A3.5 3.5 0 0 1 25 3.5L25 10.5A3.5 3.5 0 0 1 21.5 14L3.5 14A3.5 3.5 0 0 1 0 10.5L0 3.5A3.5 3.5 0 0 1 3.5 0" transform="translate(172.74 733)" fill="#91cc75"></path>
<text dominant-baseline="central" text-anchor="start" style="font-size:12px;font-family:sans-serif;" xml:space="preserve" x="30" y="7" transform="translate(172.74 733)" fill="#333">Process created</text>
<path d="M3.5 0L21.5 0A3.5 3.5 0 0 1 25 3.5L25 10.5A3.5 3.5 0 0 1 21.5 14L3.5 14A3.5 3.5 0 0 1 0 10.5L0 3.5A3.5 3.5 0 0 1 3.5 0" transform="translate(299.74 733)" fill="#fac858"></path>
<text dominant-baseline="central" text-anchor="start" style="font-size:12px;font-family:sans-serif;" xml:space="preserve" x="30" y="7" transform="translate(299.74 733)" fill="#333">Registry value modified</text>
<path d="M3.5 0L21.5 0A3.5 3.5 0 0 1 25 3.5L25 10.5A3.5 3.5 0 0 1 21.5 14L3.5 14A3.5 3.5 0 0 1 0 10.5L0 3.5A3.5 3.5 0 0 1 3.5 0" transform="translate(464.78 733)" fill="#ee6666"></path>
<text dominant-baseline="central" text-anchor="start" style="font-size:12px;font-family:sans-serif;" xml:space="preserve" x="30" y="7" transform="translate(464.78 733)" fill="#333">Member added to security-enabled global group</text>
<path d="M3.5 0L21.5 0A3.5 3.5 0 0 1 25 3.5L25 10.5A3.5 3.5 0 0 1 21.5 14L3.5 14A3.5 3.5 0 0 1 0 10.5L0 3.5A3.5 3.5 0 0 1 3.5 0" transform="translate(760.62 733)" fill="#73c0de"></path>
<text dominant-baseline="central" text-anchor="start" style="font-size:12px;font-family:sans-serif;" xml:space="preserve" x="30" y="7" transform="translate(760.62 733)" fill="#333">Logon success</text>
<path d="M3.5 0L21.5 0A3.5 3.5 0 0 1 25 3.5L25 10.5A3.5 3.5 0 0 1 21.5 14L3.5 14A3.5 3.5 0 0 1 0 10.5L0 3.5A3.5 3.5 0 0 1 3.5 0" transform="translate(61.82 757)" fill="#3ba272"></path>
<text dominant-baseline="central" text-anchor="start" style="font-size:12px;font-family:sans-serif;" xml:space="preserve" x="30" y="7" transform="translate(61.82 757)" fill="#333">Member added to security-enabled local group</text>
<path d="M3.5 0L21.5 0A3.5 3.5 0 0 1 25 3.5L25 10.5A3.5 3.5 0 0 1 21.5 14L3.5 14A3.5 3.5 0 0 1 0 10.5L0 3.5A3.5 3.5 0 0 1 3.5 0" transform="translate(350.22 757)" fill="#fc8452"></path>
<text dominant-baseline="central" text-anchor="start" style="font-size:12px;font-family:sans-serif;" xml:space="preserve" x="30" y="7" transform="translate(350.22 757)" fill="#333">Logon failure</text>
<path d="M3.5 0L21.5 0A3.5 3.5 0 0 1 25 3.5L25 10.5A3.5 3.5 0 0 1 21.5 14L3.5 14A3.5 3.5 0 0 1 0 10.5L0 3.5A3.5 3.5 0 0 1 3.5 0" transform="translate(459.94 757)" fill="#9a60b4"></path>
<text dominant-baseline="central" text-anchor="start" style="font-size:12px;font-family:sans-serif;" xml:space="preserve" x="30" y="7" transform="translate(459.94 757)" fill="#333">Kerberos authentication ticket (TGT) requested</text>
<path d="M3.5 0L21.5 0A3.5 3.5 0 0 1 25 3.5L25 10.5A3.5 3.5 0 0 1 21.5 14L3.5 14A3.5 3.5 0 0 1 0 10.5L0 3.5A3.5 3.5 0 0 1 3.5 0" transform="translate(750.98 757)" fill="#ea7ccc"></path>
<text dominant-baseline="central" text-anchor="start" style="font-size:12px;font-family:sans-serif;" xml:space="preserve" x="30" y="7" transform="translate(750.98 757)" fill="#333">Firewall allowed a connection</text>
<path d="M3.5 0L21.5 0A3.5 3.5 0 0 1 25 3.5L25 10.5A3.5 3.5 0 0 1 21.5 14L3.5 14A3.5 3.5 0 0 1 0 10.5L0 3.5A3.5 3.5 0 0 1 3.5 0" transform="translate(61.82 781)" fill="#5470c6"></path>
<text dominant-baseline="central" text-anchor="start" style="font-size:12px;font-family:sans-serif;" xml:space="preserve" x="30" y="7" transform="translate(61.82 781)" fill="#333">User account created</text>
</svg>