<svg width="1000" height="800" xmlns="http://www.w3.org/2000/svg" xmlns:xlink="http://www.w3.org/1999/xlink" version="1.1" baseProfile="full" viewBox="0 0 1000 800">
<rect width="1000" height="800" x="0" y="0" id="0" fill="none"></rect>
<polyline points="508.2 150.1 508.6 135.1 523.6 135.1" fill="none" stroke="#5470c6"></polyline>
<polyline points="518.2 150.7 581.3 149.2 596.3 149.2" fill="none" stroke="#91cc75"></polyline>
<polyline points="521.6 150.9 629.6 163.3 629.6 163.3" fill="none" stroke="#fac858"></polyline>
<polyline points="523.9 151.1 654.1 177.4 654.1 177.4" fill="none" stroke="#ee6666"></polyline>
<polyline points="525.8 151.3 673.8 191.5 673.8 191.5" fill="none" stroke="#73c0de"></polyline>
<polyline points="529.2 151.7 690.3 205.6 690.3 205.6" fill="none" stroke="#3ba272"></polyline>
<polyline points="532.5 152.1 704.4 219.7 704.4 219.7" fill="none" stroke="#fc8452"></polyline>
<polyline points="650.1 200.1 701.5 233.8 716.5 233.8" fill="none" stroke="#9a60b4"></polyline>
<polyline points="380.1 619.4 373 632.6 358 632.6" fill="none" stroke="#ea7ccc"></polyline>
<polyline points="480.8 150.7 479.7 135.8 464.7 135.8" fill="none" stroke="#5470c6"></polyline>
<path d="M500 158A7.9 7.9 0 1 1 515.8 158.5L503.4 348.5A1.7 1.7 0 0 1 500 348.3Z" fill="#5470c6"></path>
<path d="M516.2 152.4A1.9 1.9 0 1 1 520 152.7L504.1 349.8A0.4 0.4 0 0 1 503.3 349.7Z" fill="#91cc75"></path>
<path d="M520 152.2A1.4 1.4 0 1 1 522.9 152.5L504.6 349.9A0.3 0.3 0 0 1 504 349.9Z" fill="#fac858"></path>
<path d="M522.9 152A1 1 0 1 1 524.8 152.2L505 350.1A0.2 0.2 0 0 1 504.6 350Z" fill="#ee6666"></path>
<path d="M524.8 152.2A1 1 0 1 1 526.7 152.4L505.4 350.1A0.2 0.2 0 0 1 505 350.1Z" fill="#73c0de"></path>
<path d="M526.5 153.8A2.4 2.4 0 1 1 531.3 154.4L506.4 349.9A0.5 0.5 0 0 1 505.4 349.8Z" fill="#3ba272"></path>
<path d="M531.4 153A1 1 0 1 1 533.3 153.2L506.7 350.3A0.2 0.2 0 0 1 506.3 350.2Z" fill="#fc8452"></path>
<path d="M532.4 160.3A8 8 0 0 1 541.6 153.5A250 250 0 0 1 725.1 291.2A8 8 0 0 1 721.1 302L552.5 376.7A8 8 0 0 1 542.5 373.6A50 50 0 0 0 513.5 351.8A8 8 0 0 1 507.7 343.1Z" fill="#9a60b4"></path>
<path d="M721.1 302A8 8 0 0 1 731.8 306.3A250 250 0 1 1 453.6 154.3A8 8 0 0 1 463 161L491.2 343.2A8 8 0 0 1 485.6 352.1A50 50 0 1 0 548.1 386.2A8 8 0 0 1 552.5 376.7Z" fill="#ea7ccc"></path>
<path d="M463 161A8 8 0 0 1 470 151.8A250 250 0 0 1 491.7 150.1A8 8 0 0 1 500 158.1L500 346A4.2 4.2 0 0 1 491.7 346.6Z" fill="#5470c6"></path>
<text dominant-baseline="central" text-anchor="start" style="font-size:12px;font-family:sans-serif;" xml:space="preserve" transform="translate(528.6397 135.1409)" fill="#333" stroke="rgb(255,255,255)" stroke-width="2" paint-order="stroke" stroke-miterlimit="2">Logon success</text>
<text dominant-baseline="central" text-anchor="start" style="font-size:12px;font-family:sans-serif;" xml:space="preserve" transform="translate(601.2828 149.2409)" fill="#333" stroke="rgb(255,255,255)" stroke-width="2" paint-order="stroke" stroke-miterlimit="2">Explicit logon</text>
<text dominant-baseline="central" text-anchor="start" style="font-size:12px;font-family:sans-serif;" xml:space="preserve" transform="translate(634.6094 163.3409)" fill="#333" stroke="rgb(255,255,255)" stroke-width="2" paint-order="stroke" stroke-miterlimit="2">Member added to security-enabled global group</text>
<text dominant-baseline="central" text-anchor="start" style="font-size:12px;font-family:sans-serif;" xml:space="preserve" transform="translate(659.1218 177.4409)" fill="#333" stroke="rgb(255,255,255)" stroke-width="2" paint-order="stroke" stroke-miterlimit="2">Member added to security-enabled local group</text>
<text dominant-baseline="central" text-anchor="start" style="font-size:12px;font-family:sans-serif;" xml:space="preserve" transform="translate(678.8255 191.5409)" fill="#333" stroke="rgb(255,255,255)" stroke-width="2" paint-order="stroke" stroke-miterlimit="2">User account created</text>
<text dominant-baseline="central" text-anchor="start" style="font-size:12px;font-family:sans-serif;" xml:space="preserve" transform="translate(695.304 205.6409)" fill="#333" stroke="rgb(255,255,255)" stroke-width="2" paint-order="stroke" stroke-miterlimit="2">Logon failure</text>
<text dominant-baseline="central" text-anchor="start" style="font-size:12px;font-family:sans-serif;" xml:space="preserve" transform="translate(709.3791 219.7409)" fill="#333" stroke="rgb(255,255,255)" stroke-width="2" paint-order="stroke" stroke-miterlimit="2">Account logoff</text>
<text dominant-baseline="central" text-anchor="start" style="font-size:12px;font-family:sans-serif;" xml:space="preserve" transform="translate(721.5429 233.8409)" fill="#333" stroke="rgb(255,255,255)" stroke-width="2" paint-order="stroke" stroke-miterlimit="2">Registry value modified</text>
<text dominant-baseline="central" text-anchor="end" style="font-size:12px;font-family:sans-serif;" xml:space="preserve" transform="translate(352.9534 632.56)" fill="#333" stroke="rgb(255,255,255)" stroke-width="2" paint-order="stroke" stroke-miterlimit="2">Process created</text>
<text dominant-baseline="central" text-anchor="end" style="font-size:12px;font-family:sans-serif;" xml:space="preserve" transform="translate(459.6877 135.7796)" fill="#333" stroke="rgb(255,255,255)" stroke-width="2" paint-order="stroke" stroke-miterlimit="2">Firewall allowed a connection</text>
<path d="M-5 -5l970 0l0 48l-970 0Z" transform="translate(19.98 757)" fill="rgb(0,0,0)" fill-opacity="0" stroke="#ccc" stroke-width="0"></path>
<path d="M3.5 0L21.5 0A3.5 3.5 0 0 1 25 3.5L25 10.5A3.5 3.5 0 0 1 21.5 14L3.5 14A3.5 3.5 0 0 1 0 10.5L0 3.5A3.5 3.5 0 0 1 3.5 0" transform="translate(19.98 757)" fill="#5470c6"></path>
<text dominant-baseline="central" text-anchor="start" style="font-size:12px;font-family:sans-serif;" xml:space="preserve" x="30" y="7" transform="translate(19.98 757)" fill="#333">Logon success</text>
<path d="M3.5 0L21.5 0A3.5 3.5 0 0 1 25 3.5L25 10.5A3.5 3.5 0 0 1 21.5 14L3.5 14A3.5 3.5 0 0 1 0 10.5L0 3.5A3.5 3.5 0 0 1 3.5 0" transform="translate(140.38 757)" fill="#91cc75"></path>
<text dominant-baseline="central" text-anchor="start" style="font-size:12px;font-family:sans-serif;" xml:space="preserve" x="30" y="7" transform="translate(140.38 757)" fill="#333">Explicit logon</text>
<path d="M3.5 0L21.5 0A3.5 3.5 0 0 1 25 3.5L25 10.5A3.5 3.5 0 0 1 21.5 14L3.5 14A3.5 3.5 0 0 1 0 10.5L0 3.5A3.5 3.5 0 0 1 3.5 0" transform="translate(251.3 757)" fill="#fac858"></path>
<text dominant-baseline="central" text-anchor="start" style="font-size:12px;font-family:sans-serif;" xml:space="preserve" x="30" y="7" transform="translate(251.3 757)" fill="#333">Member added to security-enabled global group</text>
<path d="M3.5 0L21.5 0A3.5 3.5 0 0 1 25 3.5L25 10.5A3.5 3.5 0 0 1 21.5 14L3.5 14A3.5 3.5 0 0 1 0 10.5L0 3.5A3.5 3.5 0 0 1 3.5 0" transform="translate(547.14 757)" fill="#ee6666"></path>
<text dominant-baseline="central" text-anchor="start" style="font-size:12px;font-family:sans-serif;" xml:space="preserve" x="30" y="7" transform="translate(547.14 757)" fill="#333">Member added to security-enabled local group</text>
<path d="M3.5 0L21.5 0A3.5 3.5 0 0 1 25 3.5L25 10.5A3.5 3.5 0 0 1 21.5 14L3.5 14A3.5 3.5 0 0 1 0 10.5L0 3.5A3.5 3.5 0 0 1 3.5 0" transform="translate(835.54 757)" fill="#73c0de"></path>
<text dominant-baseline="central" text-anchor="start" style="font-size:12px;font-family:sans-serif;" xml:space="preserve" x="30" y="7" transform="translate(835.54 757)" fill="#333">User account created</text>
<path d="M3.5 0L21.5 0A3.5 3.5 0 0 1 25 3.5L25 10.5A3.5 3.5 0 0 1 21.5 14L3.5 14A3.5 3.5 0 0 1 0 10.5L0 3.5A3.5 3.5 0 0 1 3.5 0" transform="translate(19.98 781)" fill="#3ba272"></path>
<text dominant-baseline="central" text-anchor="start" style="font-size:12px;font-family:sans-serif;" xml:space="preserve" x="30" y="7" transform="translate(19.98 781)" fill="#333">Logon failure</text>
<path d="M3.5 0L21.5 0A3.5 3.5 0 0 1 25 3.5L25 10.5A3.5 3.5 0 0 1 21.5 14L3.5 14A3.5 3.5 0 0 1 0 10.5L0 3.5A3.5 3.5 0 0 1 3.5 0" transform="translate(129.7 781)" fill="#fc8452"></path>
<text dominant-baseline="central" text-anchor="start" style="font-size:12px;font-family:sans-serif;" xml:space="preserve" x="30" y="7" transform="translate(129.7 781)" fill="#333">Account logoff</text>
<path d="M3.5 0L21.5 0A3.5 3.5 0 0 1 25 3.5L25 10.5A3.5 3.5 0 0 1 21.5 14L3.5 14A3.5 3.5 0 0 1 0 10.5L0 3.5A3.5 3.5 0 0 1 3.5 0" transform="translate(246.14 781)" fill="#9a60b4"></path>
<text dominant-baseline="central" text-anchor="start" style="font-size:12px;font-family:sans-serif;" xml:space="preserve" x="30" y="7" transform="translate(246.14 781)" fill="#333">Registry value modified</text>
<path d="M3.5 0L21.5 0A3.5 3.5 0 0 1 25 3.5L25 10.5A3.5 3.5 0 0 1 21.5 14L3.5 14A3.5 3.5 0 0 1 0 10.5L0 3.5A3.5 3.5 0 0 1 3.5 0" transform="translate(411.18 781)" fill="#ea7ccc"></path>
<text dominant-baseline="central" text-anchor="start" style="font-size:12px;font-family:sans-serif;" xml:space="preserve" x="30" y="7" transform="translate(411.18 781)" fill="#333">Process created</text>
<path d="M3.5 0L21.5 0A3.5 3.5 0 0 1 25 3.5L25 10.5A3.5 3.5 0 0 1 21.5 14L3.5 14A3.5 3.5 0 0 1 0 10.5L0 3.5A3.5 3.5 0 0 1 3.5 0" transform="translate(538.18 781)" fill="#5470c6"></path>
<text dominant-baseline="central" text-anchor="start" style="font-size:12px;font-family:sans-serif;" xml:space="preserve" x="30" y="7" transform="translate(538.18 781)" fill="#333">Firewall allowed a connection</text>
</svg>