<svg width="1000" height="800" xmlns="http://www.w3.org/2000/svg" xmlns:xlink="http://www.w3.org/1999/xlink" version="1.1" baseProfile="full" viewBox="0 0 1000 800">
<rect width="1000" height="800" x="0" y="0" id="0" fill="none"></rect>
<polyline points="501.9 200 502.1 185 517.1 185" fill="none" stroke="#5470c6"></polyline>
<polyline points="504.6 200.1 571.9 199.1 586.9 199.1" fill="none" stroke="#91cc75"></polyline>
<polyline points="511.9 200.4 616.6 213.2 616.6 213.2" fill="none" stroke="#fac858"></polyline>
<polyline points="613.1 235 623.2 227.3 638.2 227.3" fill="none" stroke="#ee6666"></polyline>
<polyline points="679.4 311.6 687.9 305 702.9 305" fill="none" stroke="#73c0de"></polyline>
<polyline points="680.4 313.7 694.2 319.1 709.2 319.1" fill="none" stroke="#3ba272"></polyline>
<polyline points="681.4 315.8 699.4 333.2 714.4 333.2" fill="none" stroke="#fc8452"></polyline>
<polyline points="682.2 317.5 703.5 347.3 718.5 347.3" fill="none" stroke="#9a60b4"></polyline>
<polyline points="688.4 332.8 706.5 361.4 721.5 361.4" fill="none" stroke="#ea7ccc"></polyline>
<polyline points="378.6 558.9 369.5 570.9 354.5 570.9" fill="none" stroke="#5470c6"></polyline>
<path d="M500 200A200 200 0 0 1 503.8 200L500 400Z" fill="#5470c6"></path>
<path d="M503.8 200A200 200 0 0 1 505.4 200.1L500 400Z" fill="#91cc75"></path>
<path d="M505.4 200.1A200 200 0 0 1 518.4 200.8L500 400Z" fill="#fac858"></path>
<path d="M518.4 200.8A200 200 0 0 1 679.1 311L500 400Z" fill="#ee6666"></path>
<path d="M679.1 311A200 200 0 0 1 679.8 312.3L500 400Z" fill="#73c0de"></path>
<path d="M679.8 312.3A200 200 0 0 1 681.1 315.1L500 400Z" fill="#3ba272"></path>
<path d="M681.1 315.1A200 200 0 0 1 681.7 316.5L500 400Z" fill="#fc8452"></path>
<path d="M681.7 316.5A200 200 0 0 1 682.7 318.6L500 400Z" fill="#9a60b4"></path>
<path d="M682.7 318.6A200 200 0 0 1 693 347.4L500 400Z" fill="#ea7ccc"></path>
<path d="M693 347.4A200 200 0 1 1 500 200L500 400Z" fill="#5470c6"></path>
<text dominant-baseline="central" text-anchor="start" style="font-size:12px;font-family:sans-serif;" xml:space="preserve" transform="translate(522.0632 185.0099)" fill="#333" stroke="rgb(255,255,255)" stroke-width="2" paint-order="stroke" stroke-miterlimit="2">Logon failure</text>
<text dominant-baseline="central" text-anchor="start" style="font-size:12px;font-family:sans-serif;" xml:space="preserve" transform="translate(591.8636 199.1099)" fill="#333" stroke="rgb(255,255,255)" stroke-width="2" paint-order="stroke" stroke-miterlimit="2">Account logoff</text>
<text dominant-baseline="central" text-anchor="start" style="font-size:12px;font-family:sans-serif;" xml:space="preserve" transform="translate(621.6251 213.2099)" fill="#333" stroke="rgb(255,255,255)" stroke-width="2" paint-order="stroke" stroke-miterlimit="2">Logon success</text>
<text dominant-baseline="central" text-anchor="start" style="font-size:12px;font-family:sans-serif;" xml:space="preserve" transform="translate(643.1896 227.3099)" fill="#333" stroke="rgb(255,255,255)" stroke-width="2" paint-order="stroke" stroke-miterlimit="2">Registry value modified</text>
<text dominant-baseline="central" text-anchor="start" style="font-size:12px;font-family:sans-serif;" xml:space="preserve" transform="translate(707.9033 305.0146)" fill="#333" stroke="rgb(255,255,255)" stroke-width="2" paint-order="stroke" stroke-miterlimit="2">A trusted logon process has been register...</text>
<text dominant-baseline="central" text-anchor="start" style="font-size:12px;font-family:sans-serif;" xml:space="preserve" transform="translate(714.221 319.1146)" fill="#333" stroke="rgb(255,255,255)" stroke-width="2" paint-order="stroke" stroke-miterlimit="2">Explicit logon</text>
<text dominant-baseline="central" text-anchor="start" style="font-size:12px;font-family:sans-serif;" xml:space="preserve" transform="translate(719.3749 333.2146)" fill="#333" stroke="rgb(255,255,255)" stroke-width="2" paint-order="stroke" stroke-miterlimit="2">Member added to security-enabled local group</text>
<text dominant-baseline="central" text-anchor="start" style="font-size:12px;font-family:sans-serif;" xml:space="preserve" transform="translate(723.4514 347.3146)" fill="#333" stroke="rgb(255,255,255)" stroke-width="2" paint-order="stroke" stroke-miterlimit="2">Member added to security-enabled global group</text>
<text dominant-baseline="central" text-anchor="start" style="font-size:12px;font-family:sans-serif;" xml:space="preserve" transform="translate(726.5127 361.4146)" fill="#333" stroke="rgb(255,255,255)" stroke-width="2" paint-order="stroke" stroke-miterlimit="2">Firewall allowed a connection</text>
<text dominant-baseline="central" text-anchor="end" style="font-size:12px;font-family:sans-serif;" xml:space="preserve" transform="translate(349.5008 570.8654)" fill="#333" stroke="rgb(255,255,255)" stroke-width="2" paint-order="stroke" stroke-miterlimit="2">Process created</text>
<path d="M-5 -5l962.8 0l0 72l-962.8 0Z" transform="translate(23.58 733)" fill="rgb(0,0,0)" fill-opacity="0" stroke="#ccc" stroke-width="0"></path>
<path d="M3.5 0L21.5 0A3.5 3.5 0 0 1 25 3.5L25 10.5A3.5 3.5 0 0 1 21.5 14L3.5 14A3.5 3.5 0 0 1 0 10.5L0 3.5A3.5 3.5 0 0 1 3.5 0" transform="translate(23.58 733)" fill="#5470c6"></path>
<text dominant-baseline="central" text-anchor="start" style="font-size:12px;font-family:sans-serif;" xml:space="preserve" x="30" y="7" transform="translate(23.58 733)" fill="#333">Logon failure</text>
<path d="M3.5 0L21.5 0A3.5 3.5 0 0 1 25 3.5L25 10.5A3.5 3.5 0 0 1 21.5 14L3.5 14A3.5 3.5 0 0 1 0 10.5L0 3.5A3.5 3.5 0 0 1 3.5 0" transform="translate(133.3 733)" fill="#91cc75"></path>
<text dominant-baseline="central" text-anchor="start" style="font-size:12px;font-family:sans-serif;" xml:space="preserve" x="30" y="7" transform="translate(133.3 733)" fill="#333">Account logoff</text>
<path d="M3.5 0L21.5 0A3.5 3.5 0 0 1 25 3.5L25 10.5A3.5 3.5 0 0 1 21.5 14L3.5 14A3.5 3.5 0 0 1 0 10.5L0 3.5A3.5 3.5 0 0 1 3.5 0" transform="translate(249.74 733)" fill="#fac858"></path>
<text dominant-baseline="central" text-anchor="start" style="font-size:12px;font-family:sans-serif;" xml:space="preserve" x="30" y="7" transform="translate(249.74 733)" fill="#333">Logon success</text>
<path d="M3.5 0L21.5 0A3.5 3.5 0 0 1 25 3.5L25 10.5A3.5 3.5 0 0 1 21.5 14L3.5 14A3.5 3.5 0 0 1 0 10.5L0 3.5A3.5 3.5 0 0 1 3.5 0" transform="translate(370.14 733)" fill="#ee6666"></path>
<text dominant-baseline="central" text-anchor="start" style="font-size:12px;font-family:sans-serif;" xml:space="preserve" x="30" y="7" transform="translate(370.14 733)" fill="#333">Registry value modified</text>
<path d="M3.5 0L21.5 0A3.5 3.5 0 0 1 25 3.5L25 10.5A3.5 3.5 0 0 1 21.5 14L3.5 14A3.5 3.5 0 0 1 0 10.5L0 3.5A3.5 3.5 0 0 1 3.5 0" transform="translate(535.18 733)" fill="#73c0de"></path>
<text dominant-baseline="central" text-anchor="start" style="font-size:12px;font-family:sans-serif;" xml:space="preserve" x="30" y="7" transform="translate(535.18 733)" fill="#333">A trusted logon process has been registered with the Local Security Authority</text>
<path d="M3.5 0L21.5 0A3.5 3.5 0 0 1 25 3.5L25 10.5A3.5 3.5 0 0 1 21.5 14L3.5 14A3.5 3.5 0 0 1 0 10.5L0 3.5A3.5 3.5 0 0 1 3.5 0" transform="translate(23.58 757)" fill="#3ba272"></path>
<text dominant-baseline="central" text-anchor="start" style="font-size:12px;font-family:sans-serif;" xml:space="preserve" x="30" y="7" transform="translate(23.58 757)" fill="#333">Explicit logon</text>
<path d="M3.5 0L21.5 0A3.5 3.5 0 0 1 25 3.5L25 10.5A3.5 3.5 0 0 1 21.5 14L3.5 14A3.5 3.5 0 0 1 0 10.5L0 3.5A3.5 3.5 0 0 1 3.5 0" transform="translate(134.5 757)" fill="#fc8452"></path>
<text dominant-baseline="central" text-anchor="start" style="font-size:12px;font-family:sans-serif;" xml:space="preserve" x="30" y="7" transform="translate(134.5 757)" fill="#333">Member added to security-enabled local group</text>
<path d="M3.5 0L21.5 0A3.5 3.5 0 0 1 25 3.5L25 10.5A3.5 3.5 0 0 1 21.5 14L3.5 14A3.5 3.5 0 0 1 0 10.5L0 3.5A3.5 3.5 0 0 1 3.5 0" transform="translate(422.9 757)" fill="#9a60b4"></path>
<text dominant-baseline="central" text-anchor="start" style="font-size:12px;font-family:sans-serif;" xml:space="preserve" x="30" y="7" transform="translate(422.9 757)" fill="#333">Member added to security-enabled global group</text>
<path d="M3.5 0L21.5 0A3.5 3.5 0 0 1 25 3.5L25 10.5A3.5 3.5 0 0 1 21.5 14L3.5 14A3.5 3.5 0 0 1 0 10.5L0 3.5A3.5 3.5 0 0 1 3.5 0" transform="translate(718.74 757)" fill="#ea7ccc"></path>
<text dominant-baseline="central" text-anchor="start" style="font-size:12px;font-family:sans-serif;" xml:space="preserve" x="30" y="7" transform="translate(718.74 757)" fill="#333">Firewall allowed a connection</text>
<path d="M3.5 0L21.5 0A3.5 3.5 0 0 1 25 3.5L25 10.5A3.5 3.5 0 0 1 21.5 14L3.5 14A3.5 3.5 0 0 1 0 10.5L0 3.5A3.5 3.5 0 0 1 3.5 0" transform="translate(23.58 781)" fill="#5470c6"></path>
<text dominant-baseline="central" text-anchor="start" style="font-size:12px;font-family:sans-serif;" xml:space="preserve" x="30" y="7" transform="translate(23.58 781)" fill="#333">Process created</text>
<path d="M-143.9 -5l287.7 0l0 28l-287.7 0Z" transform="translate(500 5)" fill="rgb(0,0,0)" fill-opacity="0" stroke="#ccc" stroke-width="0"></path>
<text dominant-baseline="central" text-anchor="middle" style="font-size:18px;font-family:sans-serif;font-weight:bold;" xml:space="preserve" y="9" transform="translate(500 5)" fill="#464646">Windows Events with Sigma Rules</text>
</svg>