<svg width="1000" height="800" xmlns="http://www.w3.org/2000/svg" xmlns:xlink="http://www.w3.org/1999/xlink" version="1.1" baseProfile="full" viewBox="0 0 1000 800">
<rect width="1000" height="800" x="0" y="0" id="0" fill="none"></rect>
<polyline points="508.2 150.1 508.6 135.1 523.6 135.1" fill="none" stroke="#5470c6"></polyline>
<polyline points="517.7 150.6 581.3 149.2 596.3 149.2" fill="none" stroke="#91cc75"></polyline>
<polyline points="520.1 150.8 629.6 163.3 629.6 163.3" fill="none" stroke="#fac858"></polyline>
<polyline points="639.9 192.8 643.6 180.4 658.6 180.4" fill="none" stroke="#ee6666"></polyline>
<polyline points="724.3 289.5 732.8 282.9 747.8 282.9" fill="none" stroke="#73c0de"></polyline>
<polyline points="386.9 623 380.1 636.3 365.1 636.3" fill="none" stroke="#3ba272"></polyline>
<polyline points="456.1 153.9 344.6 178.1 344.6 178.1" fill="none" stroke="#fc8452"></polyline>
<polyline points="458.9 153.4 383.8 164 368.8 164" fill="none" stroke="#9a60b4"></polyline>
<polyline points="460.8 153.1 416.3 149.9 401.3 149.9" fill="none" stroke="#ea7ccc"></polyline>
<polyline points="480.8 150.7 479.7 135.8 464.7 135.8" fill="none" stroke="#5470c6"></polyline>
<path d="M500 158A7.9 7.9 0 1 1 515.8 158.5L503.4 348.5A1.7 1.7 0 0 1 500 348.3Z" fill="#5470c6"></path>
<path d="M516.2 152A1.4 1.4 0 1 1 519.1 152.2L503.9 349.9A0.3 0.3 0 0 1 503.3 349.8Z" fill="#91cc75"></path>
<path d="M519.1 151.7A1 1 0 1 1 521 151.8L504.2 350A0.2 0.2 0 0 1 503.8 350Z" fill="#fac858"></path>
<path d="M520.4 159A8 8 0 0 1 529.3 151.7A250 250 0 0 1 719.4 280.1A8 8 0 0 1 715.9 291.1L551.3 374.1A8 8 0 0 1 541.1 371.5A50 50 0 0 0 511 351.2A8 8 0 0 1 504.8 342.8Z" fill="#ee6666"></path>
<path d="M721.1 288.5A2.4 2.4 0 1 1 723.2 292.7L545.5 378.1A0.5 0.5 0 0 1 545.1 377.3Z" fill="#73c0de"></path>
<path d="M718 295.2A8 8 0 0 1 728.8 299.2A250 250 0 1 1 446.1 155.9A8 8 0 0 1 455.7 162.2L489.5 343.5A8 8 0 0 1 484.2 352.6A50 50 0 1 0 547.6 384.8A8 8 0 0 1 551.8 375.1Z" fill="#3ba272"></path>
<path d="M454.6 156.1A1.9 1.9 0 1 1 458.3 155.4L491.5 350.3A0.4 0.4 0 0 1 490.8 350.5Z" fill="#fc8452"></path>
<path d="M458.2 154.5A1 1 0 1 1 460 154.2L491.9 350.5A0.2 0.2 0 0 1 491.6 350.5Z" fill="#9a60b4"></path>
<path d="M460 154.2A1 1 0 1 1 461.9 153.9L492.3 350.4A0.2 0.2 0 0 1 491.9 350.5Z" fill="#ea7ccc"></path>
<path d="M463 161A8 8 0 0 1 470 151.8A250 250 0 0 1 491.7 150.1A8 8 0 0 1 500 158.1L500 346A4.2 4.2 0 0 1 491.7 346.6Z" fill="#5470c6"></path>
<text dominant-baseline="central" text-anchor="start" style="font-size:12px;font-family:sans-serif;" xml:space="preserve" transform="translate(528.6397 135.1409)" fill="#333" stroke="rgb(255,255,255)" stroke-width="2" paint-order="stroke" stroke-miterlimit="2">Logon success</text>
<text dominant-baseline="central" text-anchor="start" style="font-size:12px;font-family:sans-serif;" xml:space="preserve" transform="translate(601.2828 149.2409)" fill="#333" stroke="rgb(255,255,255)" stroke-width="2" paint-order="stroke" stroke-miterlimit="2">Member added to security-enabled global group</text>
<text dominant-baseline="central" text-anchor="start" style="font-size:12px;font-family:sans-serif;" xml:space="preserve" transform="translate(634.6094 163.3409)" fill="#333" stroke="rgb(255,255,255)" stroke-width="2" paint-order="stroke" stroke-miterlimit="2">A trusted logon process has been registered with the...</text>
<text dominant-baseline="central" text-anchor="start" style="font-size:12px;font-family:sans-serif;" xml:space="preserve" transform="translate(663.5697 180.3898)" fill="#333" stroke="rgb(255,255,255)" stroke-width="2" paint-order="stroke" stroke-miterlimit="2">Registry value modified</text>
<text dominant-baseline="central" text-anchor="start" style="font-size:12px;font-family:sans-serif;" xml:space="preserve" transform="translate(752.7771 282.9154)" fill="#333" stroke="rgb(255,255,255)" stroke-width="2" paint-order="stroke" stroke-miterlimit="2">Logon failure</text>
<text dominant-baseline="central" text-anchor="end" style="font-size:12px;font-family:sans-serif;" xml:space="preserve" transform="translate(360.1494 636.349)" fill="#333" stroke="rgb(255,255,255)" stroke-width="2" paint-order="stroke" stroke-miterlimit="2">Process created</text>
<text dominant-baseline="central" text-anchor="end" style="font-size:12px;font-family:sans-serif;" xml:space="preserve" transform="translate(339.6134 178.0796)" fill="#333" stroke="rgb(255,255,255)" stroke-width="2" paint-order="stroke" stroke-miterlimit="2">Explicit logon</text>
<text dominant-baseline="central" text-anchor="end" style="font-size:12px;font-family:sans-serif;" xml:space="preserve" transform="translate(363.7506 163.9796)" fill="#333" stroke="rgb(255,255,255)" stroke-width="2" paint-order="stroke" stroke-miterlimit="2">User account created</text>
<text dominant-baseline="central" text-anchor="end" style="font-size:12px;font-family:sans-serif;" xml:space="preserve" transform="translate(396.2914 149.8796)" fill="#333" stroke="rgb(255,255,255)" stroke-width="2" paint-order="stroke" stroke-miterlimit="2">Kerberos service ticket requested</text>
<text dominant-baseline="central" text-anchor="end" style="font-size:12px;font-family:sans-serif;" xml:space="preserve" transform="translate(459.6877 135.7796)" fill="#333" stroke="rgb(255,255,255)" stroke-width="2" paint-order="stroke" stroke-miterlimit="2">Firewall allowed a connection</text>
<path d="M-5 -5l885.8 0l0 72l-885.8 0Z" transform="translate(62.08 733)" fill="rgb(0,0,0)" fill-opacity="0" stroke="#ccc" stroke-width="0"></path>
<path d="M3.5 0L21.5 0A3.5 3.5 0 0 1 25 3.5L25 10.5A3.5 3.5 0 0 1 21.5 14L3.5 14A3.5 3.5 0 0 1 0 10.5L0 3.5A3.5 3.5 0 0 1 3.5 0" transform="translate(62.08 733)" fill="#5470c6"></path>
<text dominant-baseline="central" text-anchor="start" style="font-size:12px;font-family:sans-serif;" xml:space="preserve" x="30" y="7" transform="translate(62.08 733)" fill="#333">Logon success</text>
<path d="M3.5 0L21.5 0A3.5 3.5 0 0 1 25 3.5L25 10.5A3.5 3.5 0 0 1 21.5 14L3.5 14A3.5 3.5 0 0 1 0 10.5L0 3.5A3.5 3.5 0 0 1 3.5 0" transform="translate(182.48 733)" fill="#91cc75"></path>
<text dominant-baseline="central" text-anchor="start" style="font-size:12px;font-family:sans-serif;" xml:space="preserve" x="30" y="7" transform="translate(182.48 733)" fill="#333">Member added to security-enabled global group</text>
<path d="M3.5 0L21.5 0A3.5 3.5 0 0 1 25 3.5L25 10.5A3.5 3.5 0 0 1 21.5 14L3.5 14A3.5 3.5 0 0 1 0 10.5L0 3.5A3.5 3.5 0 0 1 3.5 0" transform="translate(478.32 733)" fill="#fac858"></path>
<text dominant-baseline="central" text-anchor="start" style="font-size:12px;font-family:sans-serif;" xml:space="preserve" x="30" y="7" transform="translate(478.32 733)" fill="#333">A trusted logon process has been registered with the Local Security Authority</text>
<path d="M3.5 0L21.5 0A3.5 3.5 0 0 1 25 3.5L25 10.5A3.5 3.5 0 0 1 21.5 14L3.5 14A3.5 3.5 0 0 1 0 10.5L0 3.5A3.5 3.5 0 0 1 3.5 0" transform="translate(62.08 757)" fill="#ee6666"></path>
<text dominant-baseline="central" text-anchor="start" style="font-size:12px;font-family:sans-serif;" xml:space="preserve" x="30" y="7" transform="translate(62.08 757)" fill="#333">Registry value modified</text>
<path d="M3.5 0L21.5 0A3.5 3.5 0 0 1 25 3.5L25 10.5A3.5 3.5 0 0 1 21.5 14L3.5 14A3.5 3.5 0 0 1 0 10.5L0 3.5A3.5 3.5 0 0 1 3.5 0" transform="translate(227.12 757)" fill="#73c0de"></path>
<text dominant-baseline="central" text-anchor="start" style="font-size:12px;font-family:sans-serif;" xml:space="preserve" x="30" y="7" transform="translate(227.12 757)" fill="#333">Logon failure</text>
<path d="M3.5 0L21.5 0A3.5 3.5 0 0 1 25 3.5L25 10.5A3.5 3.5 0 0 1 21.5 14L3.5 14A3.5 3.5 0 0 1 0 10.5L0 3.5A3.5 3.5 0 0 1 3.5 0" transform="translate(336.84 757)" fill="#3ba272"></path>
<text dominant-baseline="central" text-anchor="start" style="font-size:12px;font-family:sans-serif;" xml:space="preserve" x="30" y="7" transform="translate(336.84 757)" fill="#333">Process created</text>
<path d="M3.5 0L21.5 0A3.5 3.5 0 0 1 25 3.5L25 10.5A3.5 3.5 0 0 1 21.5 14L3.5 14A3.5 3.5 0 0 1 0 10.5L0 3.5A3.5 3.5 0 0 1 3.5 0" transform="translate(463.84 757)" fill="#fc8452"></path>
<text dominant-baseline="central" text-anchor="start" style="font-size:12px;font-family:sans-serif;" xml:space="preserve" x="30" y="7" transform="translate(463.84 757)" fill="#333">Explicit logon</text>
<path d="M3.5 0L21.5 0A3.5 3.5 0 0 1 25 3.5L25 10.5A3.5 3.5 0 0 1 21.5 14L3.5 14A3.5 3.5 0 0 1 0 10.5L0 3.5A3.5 3.5 0 0 1 3.5 0" transform="translate(574.76 757)" fill="#9a60b4"></path>
<text dominant-baseline="central" text-anchor="start" style="font-size:12px;font-family:sans-serif;" xml:space="preserve" x="30" y="7" transform="translate(574.76 757)" fill="#333">User account created</text>
<path d="M3.5 0L21.5 0A3.5 3.5 0 0 1 25 3.5L25 10.5A3.5 3.5 0 0 1 21.5 14L3.5 14A3.5 3.5 0 0 1 0 10.5L0 3.5A3.5 3.5 0 0 1 3.5 0" transform="translate(729.24 757)" fill="#ea7ccc"></path>
<text dominant-baseline="central" text-anchor="start" style="font-size:12px;font-family:sans-serif;" xml:space="preserve" x="30" y="7" transform="translate(729.24 757)" fill="#333">Kerberos service ticket requested</text>
<path d="M3.5 0L21.5 0A3.5 3.5 0 0 1 25 3.5L25 10.5A3.5 3.5 0 0 1 21.5 14L3.5 14A3.5 3.5 0 0 1 0 10.5L0 3.5A3.5 3.5 0 0 1 3.5 0" transform="translate(62.08 781)" fill="#5470c6"></path>
<text dominant-baseline="central" text-anchor="start" style="font-size:12px;font-family:sans-serif;" xml:space="preserve" x="30" y="7" transform="translate(62.08 781)" fill="#333">Firewall allowed a connection</text>
</svg>