<svg width="1000" height="800" xmlns="http://www.w3.org/2000/svg" xmlns:xlink="http://www.w3.org/1999/xlink" version="1.1" baseProfile="full" viewBox="0 0 1000 800">
<rect width="1000" height="800" x="0" y="0" id="0" fill="none"></rect>
<polyline points="620.4 559.7 629.4 571.7 644.4 571.7" fill="none" stroke="#5470c6"></polyline>
<polyline points="312.4 330.6 303.3 325.4 288.3 325.4" fill="none" stroke="#91cc75"></polyline>
<polyline points="381 239.2 320.8 283.8 309 283.8" fill="none" stroke="#fac858"></polyline>
<polyline points="474.2 201.7 318.9 269.7 318.9 269.7" fill="none" stroke="#ee6666"></polyline>
<polyline points="475.8 201.5 330.6 255.6 330.6 255.6" fill="none" stroke="#73c0de"></polyline>
<polyline points="477.3 201.3 344.5 241.5 344.5 241.5" fill="none" stroke="#3ba272"></polyline>
<polyline points="479.2 201.1 361.6 227.4 361.6 227.4" fill="none" stroke="#fc8452"></polyline>
<polyline points="482.2 200.8 383 213.3 383 213.3" fill="none" stroke="#9a60b4"></polyline>
<polyline points="485.7 200.5 427.6 199.2 412.6 199.2" fill="none" stroke="#ea7ccc"></polyline>
<polyline points="493.6 200.1 493.1 185.1 478.1 185.1" fill="none" stroke="#5470c6"></polyline>
<path d="M500 200A200 200 0 1 1 307.7 344.9L500 400Z" fill="#5470c6"></path>
<path d="M307.7 344.9A200 200 0 0 1 318.2 316.7L500 400Z" fill="#91cc75"></path>
<path d="M318.2 316.7A200 200 0 0 1 473.5 201.8L500 400Z" fill="#fac858"></path>
<path d="M473.5 201.8A200 200 0 0 1 475 201.6L500 400Z" fill="#ee6666"></path>
<path d="M475 201.6A200 200 0 0 1 476.5 201.4L500 400Z" fill="#73c0de"></path>
<path d="M476.5 201.4A200 200 0 0 1 478 201.2L500 400Z" fill="#3ba272"></path>
<path d="M478 201.2A200 200 0 0 1 480.3 201L500 400Z" fill="#fc8452"></path>
<path d="M480.3 201A200 200 0 0 1 484.2 200.6L500 400Z" fill="#9a60b4"></path>
<path d="M484.2 200.6A200 200 0 0 1 487.2 200.4L500 400Z" fill="#ea7ccc"></path>
<path d="M487.2 200.4A200 200 0 0 1 500 200L500 400Z" fill="#5470c6"></path>
<text dominant-baseline="central" text-anchor="start" style="font-size:12px;font-family:sans-serif;" xml:space="preserve" transform="translate(649.4244 571.6809)" fill="#333" stroke="rgb(255,255,255)" stroke-width="2" paint-order="stroke" stroke-miterlimit="2">Process created</text>
<text dominant-baseline="central" text-anchor="end" style="font-size:12px;font-family:sans-serif;" xml:space="preserve" transform="translate(283.3276 325.4042)" fill="#333" stroke="rgb(255,255,255)" stroke-width="2" paint-order="stroke" stroke-miterlimit="2">Firewall allowed a connection</text>
<text dominant-baseline="central" text-anchor="end" style="font-size:12px;font-family:sans-serif;" xml:space="preserve" transform="translate(304.0241 283.8099)" fill="#333" stroke="rgb(255,255,255)" stroke-width="2" paint-order="stroke" stroke-miterlimit="2">Registry value modified</text>
<text dominant-baseline="central" text-anchor="end" style="font-size:12px;font-family:sans-serif;" xml:space="preserve" transform="translate(313.8744 269.7099)" fill="#333" stroke="rgb(255,255,255)" stroke-width="2" paint-order="stroke" stroke-miterlimit="2">User account created</text>
<text dominant-baseline="central" text-anchor="end" style="font-size:12px;font-family:sans-serif;" xml:space="preserve" transform="translate(325.5672 255.6099)" fill="#333" stroke="rgb(255,255,255)" stroke-width="2" paint-order="stroke" stroke-miterlimit="2">Account logoff</text>
<text dominant-baseline="central" text-anchor="end" style="font-size:12px;font-family:sans-serif;" xml:space="preserve" transform="translate(339.5459 241.5099)" fill="#333" stroke="rgb(255,255,255)" stroke-width="2" paint-order="stroke" stroke-miterlimit="2">Credential Manager credentials were read</text>
<text dominant-baseline="central" text-anchor="end" style="font-size:12px;font-family:sans-serif;" xml:space="preserve" transform="translate(356.5549 227.4099)" fill="#333" stroke="rgb(255,255,255)" stroke-width="2" paint-order="stroke" stroke-miterlimit="2">Member added to security-enabled global group</text>
<text dominant-baseline="central" text-anchor="end" style="font-size:12px;font-family:sans-serif;" xml:space="preserve" transform="translate(378.0301 213.3099)" fill="#333" stroke="rgb(255,255,255)" stroke-width="2" paint-order="stroke" stroke-miterlimit="2">Logon failure</text>
<text dominant-baseline="central" text-anchor="end" style="font-size:12px;font-family:sans-serif;" xml:space="preserve" transform="translate(407.6037 199.2099)" fill="#333" stroke="rgb(255,255,255)" stroke-width="2" paint-order="stroke" stroke-miterlimit="2">Explicit logon</text>
<text dominant-baseline="central" text-anchor="end" style="font-size:12px;font-family:sans-serif;" xml:space="preserve" transform="translate(473.1257 185.1099)" fill="#333" stroke="rgb(255,255,255)" stroke-width="2" paint-order="stroke" stroke-miterlimit="2">Logon success</text>
<path d="M-5 -5l901 0l0 48l-901 0Z" transform="translate(54.48 757)" fill="rgb(0,0,0)" fill-opacity="0" stroke="#ccc" stroke-width="0"></path>
<path d="M3.5 0L21.5 0A3.5 3.5 0 0 1 25 3.5L25 10.5A3.5 3.5 0 0 1 21.5 14L3.5 14A3.5 3.5 0 0 1 0 10.5L0 3.5A3.5 3.5 0 0 1 3.5 0" transform="translate(54.48 757)" fill="#5470c6"></path>
<text dominant-baseline="central" text-anchor="start" style="font-size:12px;font-family:sans-serif;" xml:space="preserve" x="30" y="7" transform="translate(54.48 757)" fill="#333">Process created</text>
<path d="M3.5 0L21.5 0A3.5 3.5 0 0 1 25 3.5L25 10.5A3.5 3.5 0 0 1 21.5 14L3.5 14A3.5 3.5 0 0 1 0 10.5L0 3.5A3.5 3.5 0 0 1 3.5 0" transform="translate(181.48 757)" fill="#91cc75"></path>
<text dominant-baseline="central" text-anchor="start" style="font-size:12px;font-family:sans-serif;" xml:space="preserve" x="30" y="7" transform="translate(181.48 757)" fill="#333">Firewall allowed a connection</text>
<path d="M3.5 0L21.5 0A3.5 3.5 0 0 1 25 3.5L25 10.5A3.5 3.5 0 0 1 21.5 14L3.5 14A3.5 3.5 0 0 1 0 10.5L0 3.5A3.5 3.5 0 0 1 3.5 0" transform="translate(378.68 757)" fill="#fac858"></path>
<text dominant-baseline="central" text-anchor="start" style="font-size:12px;font-family:sans-serif;" xml:space="preserve" x="30" y="7" transform="translate(378.68 757)" fill="#333">Registry value modified</text>
<path d="M3.5 0L21.5 0A3.5 3.5 0 0 1 25 3.5L25 10.5A3.5 3.5 0 0 1 21.5 14L3.5 14A3.5 3.5 0 0 1 0 10.5L0 3.5A3.5 3.5 0 0 1 3.5 0" transform="translate(543.72 757)" fill="#ee6666"></path>
<text dominant-baseline="central" text-anchor="start" style="font-size:12px;font-family:sans-serif;" xml:space="preserve" x="30" y="7" transform="translate(543.72 757)" fill="#333">User account created</text>
<path d="M3.5 0L21.5 0A3.5 3.5 0 0 1 25 3.5L25 10.5A3.5 3.5 0 0 1 21.5 14L3.5 14A3.5 3.5 0 0 1 0 10.5L0 3.5A3.5 3.5 0 0 1 3.5 0" transform="translate(698.2 757)" fill="#73c0de"></path>
<text dominant-baseline="central" text-anchor="start" style="font-size:12px;font-family:sans-serif;" xml:space="preserve" x="30" y="7" transform="translate(698.2 757)" fill="#333">Account logoff</text>
<path d="M3.5 0L21.5 0A3.5 3.5 0 0 1 25 3.5L25 10.5A3.5 3.5 0 0 1 21.5 14L3.5 14A3.5 3.5 0 0 1 0 10.5L0 3.5A3.5 3.5 0 0 1 3.5 0" transform="translate(54.48 781)" fill="#3ba272"></path>
<text dominant-baseline="central" text-anchor="start" style="font-size:12px;font-family:sans-serif;" xml:space="preserve" x="30" y="7" transform="translate(54.48 781)" fill="#333">Credential Manager credentials were read</text>
<path d="M3.5 0L21.5 0A3.5 3.5 0 0 1 25 3.5L25 10.5A3.5 3.5 0 0 1 21.5 14L3.5 14A3.5 3.5 0 0 1 0 10.5L0 3.5A3.5 3.5 0 0 1 3.5 0" transform="translate(318.64 781)" fill="#fc8452"></path>
<text dominant-baseline="central" text-anchor="start" style="font-size:12px;font-family:sans-serif;" xml:space="preserve" x="30" y="7" transform="translate(318.64 781)" fill="#333">Member added to security-enabled global group</text>
<path d="M3.5 0L21.5 0A3.5 3.5 0 0 1 25 3.5L25 10.5A3.5 3.5 0 0 1 21.5 14L3.5 14A3.5 3.5 0 0 1 0 10.5L0 3.5A3.5 3.5 0 0 1 3.5 0" transform="translate(614.48 781)" fill="#9a60b4"></path>
<text dominant-baseline="central" text-anchor="start" style="font-size:12px;font-family:sans-serif;" xml:space="preserve" x="30" y="7" transform="translate(614.48 781)" fill="#333">Logon failure</text>
<path d="M3.5 0L21.5 0A3.5 3.5 0 0 1 25 3.5L25 10.5A3.5 3.5 0 0 1 21.5 14L3.5 14A3.5 3.5 0 0 1 0 10.5L0 3.5A3.5 3.5 0 0 1 3.5 0" transform="translate(724.2 781)" fill="#ea7ccc"></path>
<text dominant-baseline="central" text-anchor="start" style="font-size:12px;font-family:sans-serif;" xml:space="preserve" x="30" y="7" transform="translate(724.2 781)" fill="#333">Explicit logon</text>
<path d="M3.5 0L21.5 0A3.5 3.5 0 0 1 25 3.5L25 10.5A3.5 3.5 0 0 1 21.5 14L3.5 14A3.5 3.5 0 0 1 0 10.5L0 3.5A3.5 3.5 0 0 1 3.5 0" transform="translate(835.12 781)" fill="#5470c6"></path>
<text dominant-baseline="central" text-anchor="start" style="font-size:12px;font-family:sans-serif;" xml:space="preserve" x="30" y="7" transform="translate(835.12 781)" fill="#333">Logon success</text>
<path d="M-143.9 -5l287.7 0l0 28l-287.7 0Z" transform="translate(500 5)" fill="rgb(0,0,0)" fill-opacity="0" stroke="#ccc" stroke-width="0"></path>
<text dominant-baseline="central" text-anchor="middle" style="font-size:18px;font-family:sans-serif;font-weight:bold;" xml:space="preserve" y="9" transform="translate(500 5)" fill="#464646">Windows Events with Sigma Rules</text>
</svg>